# xmcd CD database file
# 
# Track frame offsets:
# 	150
# 	12717
# 	24257
# 	35742
# 	51285
# 	59467
# 	73977
# 	85680
# 	95872
# 	107560
# 	118932
# 	130655
# 	140970
# 	147322
# 	157935
# 	170055
# 	178207
# 	188607
# 
# Disc length: 2649 seconds
# 
# Submitted via: Nero 5.5.10.35
# 
# Revision: 0
# Processed by: cddbd v1.4PL0 Copyright (c) Steve Scherf et al.
#
DISCID=110a5712
DTITLE=KTO - Best of KTO
DYEAR=1900
DGENRE=
TTITLE0=Placek v oudoli
TTITLE1=Marinak
TTITLE2=Sejdy lejdy
TTITLE3=Nad vodou svita
TTITLE4=Posazavskej Dan
TTITLE5=Danny boy
TTITLE6=Loudavej vlak
TTITLE7=Tecka
TTITLE8=Prokletej Bar
TTITLE9=Zradny banjo
TTITLE10=Vzpominka na Rocky Top
TTITLE11=U tri louzi
TTITLE12=Kvete mak a slunce pali
TTITLE13=Dej si rict
TTITLE14=Den jde spat
TTITLE15=Ma co chtela
TTITLE16=Leta padi
TTITLE17=Cestou k Wabash Cannonball
EXTD=
EXTT0=
EXTT1=
EXTT2=
EXTT3=
EXTT4=
EXTT5=
EXTT6=
EXTT7=
EXTT8=
EXTT9=
EXTT10=
EXTT11=
EXTT12=
EXTT13=
EXTT14=
EXTT15=
EXTT16=
EXTT17=
PLAYORDER=
